<?xml version="1.0" encoding="utf-8"?>
<!-- Generator: Adobe Illustrator 19.0.0, SVG Export Plug-In . SVG Version: 6.00 Build 0)  -->
<svg version="1.1" id="Capa_1" xmlns="http://www.w3.org/2000/svg" xmlns:xlink="http://www.w3.org/1999/xlink" x="0px" y="0px"
	 viewBox="0 0 64 64" style="enable-background:new 0 0 64 64;" xml:space="preserve">
<style type="text/css">
	.st0{fill-rule:evenodd;clip-rule:evenodd;fill:#505E84;}
	.st1{fill:#FFFFFF;}
</style>
<path id="XMLID_72_" class="st0" d="M32.3,63.4c17.3,0,31.4-14.1,31.4-31.4c0-17.3-14.1-31.4-31.4-31.4S0.9,14.8,0.9,32.1
	C0.9,49.3,15,63.4,32.3,63.4z"/>
<g>
	<g>
		<g>
			<path id="XMLID_71_" class="st1" d="M45.9,15.4C41.5,11,35.5,9,29.2,9.8c-3.3,0.4-6.4,1.7-9.1,3.7c-4.8,3.6-7.6,8.8-8,14.6h-1.4
				c-0.7,0-1.3,0.6-1.3,1.3v10.5c0,0.7,0.6,1.3,1.3,1.3h5.6c0.7,0,1.3-0.6,1.3-1.3V29.4c0-0.7-0.6-1.3-1.3-1.3h-1.6
				c0.3-3.7,1.8-7.1,4.1-9.8l2.7,2.7c0.5,0.5,1.3,0.5,1.9,0h0c2.2-2.2,5.2-3.5,8.4-3.5s6.2,1.2,8.4,3.5l0,0c0.5,0.5,1.3,0.5,1.9,0
				l2.7-2.7c2.3,2.7,3.8,6.1,4.1,9.8h-1.6c-0.7,0-1.3,0.6-1.3,1.3v10.5c0,0.7,0.6,1.3,1.3,1.3H48c-0.6,4.5-4.5,8-9.2,8h-1.5
				c-0.5-1.5-2-2.6-3.7-2.6l-3.3,0c-2.1,0-3.9,1.5-4.1,3.5c-0.2,2.3,1.6,4.3,3.9,4.3h3.5c1.7,0,3.2-1.1,3.7-2.6h1.5
				c6.1,0,11.2-4.6,11.8-10.6H53c0.7,0,1.3-0.6,1.3-1.3V29.4c0-0.7-0.6-1.3-1.3-1.3h-1.4C51.3,23.3,49.3,18.8,45.9,15.4z"/>
		</g>
	</g>
	<g>
		<g>
			<g>
				<polygon id="XMLID_70_" class="st1" points="21,37.2 21,35.3 24.7,35.3 24.7,29.6 19.1,29.6 19.1,31.5 22.9,31.5 22.9,33.4 
					19.1,33.4 19.1,39.1 24.7,39.1 24.7,37.2 				"/>
			</g>
		</g>
		<g>
			<g>
				<polygon id="XMLID_69_" class="st1" points="29.5,29.6 29.5,33.4 27.6,33.4 27.6,29.6 25.7,29.6 25.7,35.3 29.5,35.3 29.5,39.1 
					31.4,39.1 31.4,29.6 				"/>
			</g>
		</g>
		<polygon id="XMLID_68_" class="st1" points="35.6,29.6 37.1,29.6 34.7,39.1 33.2,39.1 		"/>
		<polygon id="XMLID_67_" class="st1" points="42.6,29.6 45,29.6 41.8,39.1 39.4,39.1 		"/>
		<polygon id="XMLID_66_" class="st1" points="38.5,29.6 38.5,31.7 44.1,31.7 44.6,29.6 		"/>
	</g>
</g>
</svg>
