<?xml version="1.0" encoding="utf-8"?>
<!-- Generator: Adobe Illustrator 19.0.0, SVG Export Plug-In . SVG Version: 6.00 Build 0)  -->
<svg version="1.1" id="Capa_1" xmlns="http://www.w3.org/2000/svg" xmlns:xlink="http://www.w3.org/1999/xlink" x="0px" y="0px"
	 viewBox="0 0 64 64" style="enable-background:new 0 0 64 64;" xml:space="preserve">
<style type="text/css">
	.st0{fill-rule:evenodd;clip-rule:evenodd;fill:#505E84;}
	.st1{fill-rule:evenodd;clip-rule:evenodd;fill:#FFFFFF;}
</style>
<path id="XMLID_74_" class="st0" d="M32,63.3c17.2,0,31.3-14,31.3-31.2c0-17.2-14-31.3-31.3-31.3S0.7,14.8,0.7,32.1
	C0.7,49.3,14.8,63.3,32,63.3z"/>
<path id="XMLID_67_" class="st1" d="M14.7,47.5c0.1,0.3-0.2,0.6-0.5,0.8c-0.3,0.1-0.7,0.4-0.8,0.1c-0.6-1.5-1.8-5.9-2.5-9.7
	c-0.5-3.4-0.6-5.5-0.5-8.8c0.1-2.3,0.5-4.3,2.3-6.2c1.3-1.3,3.7-1.9,6.2-2.2c3-0.3,6.2-0.1,8.2,0.5c1.1,0.4,2.1,0.9,2.7,1.5
	c2,2,2.2,5,2.6,7.6c0.5,0.1,0.9,0.1,1.3,0.1c0.3-1.2,1.4-2,2.6-2c1.2,0,2.3,0.8,2,1.9c-0.3,1.2-1.8,1.2-3,1.2
	c0.1,0.5,0.5,1.5,2.5,1.4c0.8,0,1.5-0.6,1.8-1.6c0.1-0.4,0.2-1.4,0.6-1.5c0.6-0.2,1.4-0.4,2-0.5c0.7-0.1,1.4,0.1,1.5,0.7
	c0.1,0.8,0.1,1.7,0.5,2.2c0.3,0.4,0.7,0.6,1.7-0.1c0.6-0.4,0.9-1.4,1-1.9c0.1-0.3,0.2-0.5,0.5-0.6c0.7-0.3,1.1-0.1,0.9,0.6
	c-0.1,0.5,0.1,2,0.5,2.3c0.3,0.3,1.1,0.1,1.4-0.1c0.7-0.4,1-0.8,1.4-2.7c0.1-0.4,0.5-0.4,0.8-0.5c0.4-0.1,0.3,0.4,0.3,0.8
	c-0.1,1.4,0.3,2.1,1.9,2.5c0.4,0.1,0.2,1.4-0.5,1.2c-1-0.2-1.5-0.7-2.1-1.6c-0.3,0.4-1,1.6-2.5,1.6c-1.7,0-2.2-1.1-2.5-2.3
	c-0.2,0.6-0.8,1.4-1,1.6c-1,0.9-2.3,0.8-3-0.1c-0.4-0.6-0.7-1.7-1.1-2.3c-0.3-0.4-1.2,0-1.8,0.5c0,0-0.5,2.8-2.8,2.8
	c-3.4,0.1-3.5-1.5-4-2.5c-0.5,0-1,0-1.3,0c0,1.2,0,3.5-1.1,5.5c-1.1,1.9-2.7,2.6-4.5,3.2c-1.7,0.6-3.6,1.1-5.6,1.3
	c-3.2,0.3-5.4-1.1-6.7-4.2c-0.8-1.9-1-3.7-1.1-5.3c-0.1-2.5,0.2-5,3-6.6c2-1.1,5.5-1.2,7.9-0.9c1.6,0.2,2.9,0.7,4,1.9
	c0.7,0.8,1.2,1.6,1.5,2.5c0.1,0.4,0.2,1.2,0.2,1.5c0.4,0,0.8,0,1.1,0c0.1-0.1-0.1-3.4-1.5-5.8c-0.7-1.1-1.7-1.9-2.9-2.3
	c-1.8-0.6-4.9-0.8-7.7-0.5c-2.3,0.3-4.4,0.9-5.6,2c-1.5,1.5-1.9,3.7-1.9,5.3c-0.2,3.3,0.1,5.3,0.8,8.6C13,42.3,14.2,46,14.7,47.5
	L14.7,47.5z M31.2,34.3c0.1-0.8,0.1-1.3,0.1-2.2c-0.3,0-0.7,0-0.9,0c0.2,2.8-0.8,3.9-1.6,4.6c-1.3,1.2-3.3,1.8-5,2
	c-2.3,0.2-4.7,0.4-5.9-2.4c-0.5-1.2-0.9-2.8-0.6-4.3c0.2-1.2,0.7-2.4,1.9-3.1c1.3-0.8,3.4-1,4.8-0.7c2.9,0.6,3.3,2.7,3.5,3
	c0.6,0.1,1.1,0,1.6,0.1c-0.1-1.5-1.1-2.8-1.4-3.2c-0.9-0.9-2.1-1.4-3.5-1.6c-1.4-0.2-2.9-0.2-4.6,0c-1.4,0.2-2.9,0.8-3.7,1.9
	c-0.9,1.2-1.2,2.8-1.1,4.4c0.1,1.5,0.3,3.3,1,5.1c0.9,2.2,2.9,3.5,5.6,3.2c1.9-0.2,3.5-0.6,5.2-1.2c1.6-0.6,2.8-1.3,3.7-2.6
	C30.6,36.6,31,35.4,31.2,34.3L31.2,34.3z M29.2,32c-0.6,0.1-1.1,0-1.5,0c-0.1,1.1-0.1,1.7-0.5,2.3c-0.5,0.7-1.7,1.5-3.2,1.5
	c-1.2,0-2.5-0.4-3.1-1.4c-0.7-1.3-0.5-2.1-0.1-2.7c0.4-0.7,1.2-1,2.7-1c0.7,0,1.7,0.1,2.6,0.1c0-0.4-0.8-1.5-2.3-1.8
	c-2.3-0.4-5,0.2-5.5,2.9c-0.2,1.2-0.1,2.6,0.4,3.6c0.9,1.7,3,1.9,4.9,1.7c1.5-0.1,3.1-0.6,4.3-1.6C28.9,34.9,29.4,33.8,29.2,32
	L29.2,32z M26.1,33.6c0.3-0.3,0.5-1.5,0.2-1.6c-0.9-0.1-1.8,0-2.5-0.1c-1.1,0-2.1,0.5-1.6,1.6c0.3,0.7,0.7,0.8,1.4,0.9
	C24.6,34.7,25.4,34.5,26.1,33.6L26.1,33.6z M35.4,31.2c0.9,0.3,1.6,0,1.9-0.2c0.6-0.5-0.2-1.1-0.7-1C35.9,30.1,35.2,30.8,35.4,31.2
	L35.4,31.2z M50.9,27.9c-0.3,0.1-1.2,1-1.4,1.4c-0.2,0.3,0.1,0.6,0.7,0.4c0.8-0.3,2-1.2,2-1.5C52.3,27.9,51.3,27.7,50.9,27.9z"/>
</svg>
