<?xml version="1.0" encoding="utf-8"?>
<!-- Generator: Adobe Illustrator 19.0.0, SVG Export Plug-In . SVG Version: 6.00 Build 0)  -->
<svg version="1.1" id="Capa_1" xmlns="http://www.w3.org/2000/svg" xmlns:xlink="http://www.w3.org/1999/xlink" x="0px" y="0px"
	 viewBox="0 0 64 64" style="enable-background:new 0 0 64 64;" xml:space="preserve">
<style type="text/css">
	.st0{fill-rule:evenodd;clip-rule:evenodd;fill:#505E84;}
	.st1{fill:#FFFFFF;}
</style>
<path id="XMLID_85_" class="st0" d="M32,63.3c17.2,0,31.3-14,31.3-31.2c0-17.2-14-31.3-31.3-31.3S0.7,14.8,0.7,32.1
	C0.7,49.3,14.8,63.3,32,63.3z"/>
<g id="XMLID_67_">
	<g id="XMLID_68_">
		<g id="XMLID_83_">
			<path id="XMLID_84_" class="st1" d="M35.2,38.1c-0.1-0.2-0.3-0.3-0.5-0.4c-0.4-0.2-0.8-0.3-1.2-0.4v3.3c0.7-0.1,1.5-0.3,1.8-1
				l0,0c0.2-0.3,0.2-0.7,0.1-1C35.4,38.4,35.4,38.3,35.2,38.1z"/>
		</g>
		<g id="XMLID_81_">
			<path id="XMLID_82_" class="st1" d="M35.3,39.6C35.3,39.6,35.3,39.6,35.3,39.6L35.3,39.6C35.3,39.6,35.3,39.6,35.3,39.6z"/>
		</g>
		<g id="XMLID_79_">
			<path id="XMLID_80_" class="st1" d="M30.3,32.8c-0.1,0.2-0.2,0.4-0.2,0.6c0,0.2,0,0.4,0.1,0.6c0.1,0.2,0.2,0.3,0.4,0.4
				c0.2,0.1,0.4,0.2,0.6,0.3c0.2,0.1,0.4,0.1,0.6,0.2v-3C31.2,32.1,30.6,32.4,30.3,32.8z"/>
		</g>
		<g id="XMLID_77_">
			<path id="XMLID_78_" class="st1" d="M35.4,39.6C35.4,39.6,35.4,39.6,35.4,39.6L35.4,39.6C35.4,39.6,35.4,39.6,35.4,39.6z"/>
		</g>
		<g id="XMLID_75_">
			<path id="XMLID_76_" class="st1" d="M35.4,39.6C35.4,39.6,35.4,39.6,35.4,39.6L35.4,39.6z"/>
		</g>
		<g id="XMLID_71_">
			<path id="XMLID_72_" class="st1" d="M34.7,21.6c2.8-2.4,4.7-7.7,3.5-7.9c-1.5-0.3-4.9,1-6.5,1.3c-2.3,0.3-4.8-2.5-6.2-0.9
				c-1.1,1.2,0.8,5.8,3.9,7.8c-9.1,4.5-21.9,26.9,0.4,28.5C60.7,52.6,45.2,26,34.7,21.6z M37.3,39.3c-0.1,0.9-0.6,1.7-1.3,2.2
				c-0.7,0.6-1.6,0.8-2.6,0.9v1c0,0.3-0.1,0.5-0.3,0.7c-0.3,0.2-0.7,0.3-1,0.1c-0.3-0.1-0.5-0.5-0.5-0.8v-1.1
				c-0.2,0-0.3-0.1-0.5-0.1c-0.9-0.2-1.6-0.7-2.2-1.4c-0.3-0.3-0.5-0.7-0.7-1.1c0-0.1-0.1-0.2-0.1-0.3c0-0.1-0.1-0.2-0.1-0.3
				c0-0.2,0-0.4,0.1-0.5c0.2-0.3,0.5-0.5,0.9-0.5c0.4,0,0.7,0.3,0.8,0.6c0,0.1,0.1,0.2,0.1,0.3c0,0.1,0.1,0.2,0.1,0.3
				c0.1,0.2,0.2,0.4,0.4,0.5c0.3,0.3,0.7,0.5,1.2,0.6v-3.6c-0.8-0.2-1.7-0.5-2.4-1c-0.3-0.3-0.6-0.6-0.8-1c-0.2-0.4-0.3-0.9-0.3-1.3
				c0-0.5,0.1-0.9,0.3-1.3c0.2-0.4,0.4-0.7,0.7-1c0.7-0.6,1.6-1,2.4-1.1v-0.1v-0.9c0-0.3,0.1-0.5,0.3-0.7c0.3-0.2,0.7-0.3,1-0.1
				c0.3,0.1,0.5,0.5,0.5,0.8v0.9v0.1c0.1,0,0.2,0,0.4,0.1c0.9,0.2,1.7,0.5,2.4,1.1c0.3,0.3,0.6,0.7,0.7,1c0,0.1,0.1,0.2,0.1,0.3
				c0,0.1,0.1,0.2,0.1,0.3c0,0.2,0,0.4-0.1,0.5c-0.2,0.3-0.5,0.5-0.9,0.5c-0.4,0-0.7-0.2-0.8-0.6c0-0.1-0.1-0.2-0.1-0.3
				c0-0.1-0.1-0.2-0.1-0.3c-0.1-0.2-0.3-0.3-0.4-0.4c-0.4-0.3-0.8-0.4-1.2-0.5v3.4c0.5,0.1,1,0.3,1.6,0.5c0.8,0.3,1.5,0.8,1.9,1.5
				c-0.1-0.1-0.1-0.2,0,0c0.1,0.2,0.1,0.1,0,0C37.3,38,37.4,38.7,37.3,39.3z"/>
		</g>
		<g id="XMLID_69_">
			<path id="XMLID_70_" class="st1" d="M35.3,39.7C35.3,39.7,35.3,39.7,35.3,39.7C35.3,39.7,35.3,39.7,35.3,39.7z"/>
		</g>
	</g>
</g>
</svg>
