<?xml version="1.0" encoding="utf-8"?>
<!-- Generator: Adobe Illustrator 19.0.0, SVG Export Plug-In . SVG Version: 6.00 Build 0)  -->
<svg version="1.1" id="Capa_1" xmlns="http://www.w3.org/2000/svg" xmlns:xlink="http://www.w3.org/1999/xlink" x="0px" y="0px"
	 viewBox="0 0 64 64" style="enable-background:new 0 0 64 64;" xml:space="preserve">
<style type="text/css">
	.st0{fill-rule:evenodd;clip-rule:evenodd;fill:#505E84;}
	.st1{fill:#FFFFFF;}
</style>
<path id="XMLID_67_" class="st0" d="M32,63.3c17.3,0,31.3-14.1,31.3-31.3C63.4,14.7,49.3,0.6,32,0.6S0.7,14.7,0.7,31.9
	C0.7,49.2,14.8,63.3,32,63.3z"/>
<g id="XMLID_69_">
	<path id="XMLID_66_" class="st1" d="M44.5,24.2c1.4-1.9,2.3-3.9,2.3-5.3c0-0.5-0.1-0.8-0.3-1.1c0,0-0.1-0.1-0.2-0.2
		c-0.1-0.1-0.2-0.1-0.2-0.1c-0.3-0.2-0.6-0.3-1.1-0.3c-1.4,0-3.4,0.8-5.3,2.3c-1.5,1.1-3.1,2.8-5.2,5c-0.4,0.4-0.7,0.8-1.1,1.2
		l-4.1-1.2l0,0c0.2-0.2,0.3-0.4,0.3-0.6c0-0.2-0.1-0.5-0.3-0.7l-0.7-0.7c-0.2-0.2-0.4-0.3-0.7-0.3c-0.2,0-0.5,0.1-0.6,0.3l-1.1,1.1
		l-0.6-0.2c0.1-0.2,0.2-0.4,0.2-0.6c0-0.2-0.1-0.5-0.3-0.7l-0.7-0.7c-0.2-0.2-0.4-0.3-0.7-0.3c-0.2,0-0.5,0.1-0.6,0.3l-1,1l-4.2-1.2
		c-0.1,0-0.2,0-0.3,0c-0.3,0-0.6,0.1-0.8,0.3l-1.5,1.5c-0.2,0.2-0.3,0.4-0.3,0.6c0,0.3,0.2,0.6,0.4,0.8l8.8,4.9c0,0,0.2,0.1,0.2,0.2
		l2.5,2.5c-2.3,2.5-4.4,4.8-6,6.9c-0.2,0.2-0.3,0.4-0.4,0.6l-6.8-0.6c0,0-0.1,0-0.1,0c-0.3,0-0.6,0.1-0.8,0.3l-0.7,0.7
		c-0.2,0.2-0.3,0.4-0.3,0.6c0,0.3,0.2,0.6,0.5,0.8l4.8,2.3c0,0,0.1,0.1,0.2,0.1l0.4,0.4c-0.1,0.3-0.2,0.7-0.2,0.9
		c0,0.4,0.1,0.7,0.3,0.9l0,0l0,0c0.2,0.2,0.5,0.3,0.9,0.3c0.3,0,0.6-0.1,0.9-0.2l0.4,0.4c0,0,0.1,0.1,0.1,0.2l2.3,4.8
		c0.1,0.3,0.4,0.5,0.8,0.5h0c0.2,0,0.4-0.1,0.6-0.3l0.7-0.7c0.2-0.2,0.3-0.5,0.3-0.8c0,0,0-0.1,0-0.1L24.8,43
		c0.2-0.1,0.4-0.3,0.6-0.4c2.1-1.6,4.5-3.7,6.9-6l2.5,2.5c0,0,0.1,0.2,0.2,0.2l4.9,8.7c0.1,0.3,0.4,0.5,0.8,0.5
		c0.2,0,0.4-0.1,0.6-0.3l1.5-1.5c0.2-0.2,0.3-0.5,0.3-0.8c0-0.1,0-0.2,0-0.3l-1.2-4.2l1-1c0.2-0.2,0.3-0.4,0.3-0.6
		c0-0.2-0.1-0.5-0.3-0.6l-0.7-0.7c-0.2-0.2-0.4-0.3-0.6-0.3c-0.2,0-0.4,0.1-0.6,0.2l-0.2-0.6l1.1-1.1c0.2-0.2,0.3-0.4,0.3-0.7
		c0-0.2-0.1-0.5-0.3-0.6l-0.7-0.7c-0.2-0.2-0.4-0.3-0.7-0.3c-0.2,0-0.5,0.1-0.6,0.3l0,0l-1.2-4.1c0.4-0.4,0.8-0.8,1.2-1.2
		C41.8,27.2,43.4,25.7,44.5,24.2z"/>
</g>
</svg>
