<svg xmlns="http://www.w3.org/2000/svg" xmlns:xlink="http://www.w3.org/1999/xlink" version="1.1" width="300" height="71" viewBox="0 0 300 71" xml:space="preserve">
<desc>Created with Fabric.js 3.5.0</desc>
<defs>
</defs>
<rect x="0" y="0" width="100%" height="100%" fill="#ffffff"/>
<g transform="matrix(0.6023 0 0 0.6023 149.9899 35.4702)" id="276168">
<g style="" vector-effect="non-scaling-stroke">
		<g transform="matrix(1 0 0 1 -184.1055 0.161)" id="XMLID_8285_">
<path style="stroke: none; stroke-width: 1; stroke-dasharray: none; stroke-linecap: butt; stroke-dashoffset: 0; stroke-linejoin: miter; stroke-miterlimit: 4; is-custom-font: none; font-file-url: none; fill: rgb(222,0,0); fill-rule: nonzero; opacity: 1;" transform=" translate(-51.3945, -52.411)" d="M 82.4 68.5 L 82.4 68.5 c 0.4 -1.4 0.2 -3.5 -1.2 -4.9 c -0.4 -0.4 -0.9 -0.8 -1.5 -1 c -1.2 -0.6 -2.5 -0.6 -3.7 -0.2 c -1.2 0.5 -2.3 1.4 -2.8 2.5 c -0.1 0.2 -1 2.5 -6 15.4 c -1.2 3.1 -2.2 5.5 -2.3 5.8 c -0.3 0.7 -1.2 1.1 -1.9 0.7 c -0.8 -0.4 -0.9 -1.3 -0.6 -1.8 c 0.2 -0.3 1.7 -3.6 3.6 -7.4 c 2.6 -5.4 6.1 -12.7 6.4 -13.1 c 1 -1.8 0.6 -4.2 -0.9 -5.7 c -0.4 -0.4 -0.8 -0.7 -1.2 -0.9 c -2.7 -1.3 -5.3 0 -6.4 1.9 c -0.4 0.7 -8.4 14.1 -9.2 15.4 c -0.3 0.5 -1 0.8 -1.7 0.4 c -0.7 -0.5 -0.5 -1.3 -0.3 -1.6 c 0.9 -1.3 9.1 -12.8 10 -14.1 c 1.3 -1.7 1 -4.1 -0.5 -5.7 c -1.3 -1.3 -3.8 -2 -6.4 0 c -2 1.5 -18.3 14.8 -31.1 25.3 c 10.5 -12.8 23.7 -29.1 25.3 -31.1 c 2 -2.7 1.3 -5.1 0 -6.5 c -1.5 -1.5 -3.9 -1.7 -5.6 -0.5 c -1.3 0.9 -12.7 8.9 -14 9.9 c -0.4 0.3 -1.3 0.4 -1.7 -0.3 c -0.3 -0.5 -0.2 -1.2 0.4 -1.6 c 0.4 -0.2 14.7 -8.8 15.4 -9.2 c 1.9 -1.1 3.2 -3.8 1.9 -6.4 c -0.2 -0.5 -0.5 -0.9 -0.9 -1.2 c -1.5 -1.5 -3.9 -1.9 -5.6 -0.9 c -0.4 0.2 -7.6 3.7 -12.9 6.3 c -3.9 1.9 -7.3 3.6 -7.6 3.7 c -0.5 0.2 -1.5 0.2 -1.9 -0.8 c -0.2 -0.6 0 -1.5 0.8 -1.8 c 0.6 -0.2 2.8 -1.1 5.7 -2.2 c 12.9 -5 15.3 -5.9 15.4 -6 c 1.1 -0.5 2.1 -1.6 2.5 -2.8 c 0.5 -1.2 0.4 -2.5 -0.2 -3.7 c -0.3 -0.6 -0.6 -1.1 -1 -1.5 c -1.5 -1.5 -3.5 -1.7 -4.9 -1.2 c -0.3 0.1 -11 3.2 -17.5 5 c 0.6 -0.7 1.2 -1.4 1.8 -2.1 L 38 19.1 c 8.4 7.1 20.6 17.6 21.8 18.6 c 0.5 0.5 1 0.6 1.5 0.6 l 0.3 0 c 0.4 0 0.6 -0.1 1 0 c 0.7 0.1 1.4 0.4 2 1 c 0.7 0.7 1 1.6 1 2.6 c 0 0.1 0 0.3 0 0.4 l 0 0.3 c 0 0.6 0.2 1.1 0.6 1.5 c 1 1.2 11.5 13.3 18.6 21.8 l -5.2 18.3 c -0.7 0.6 -1.4 1.2 -2.1 1.8 C 79.3 79.5 82.3 68.8 82.4 68.5 M 24.2 85 L 24.2 85 C 37.3 74.3 56 59 58.1 57.4 c 0.2 -0.2 0.8 -0.6 1 -0.3 c 0.1 0.1 0.1 0.2 0 0.3 c -0.9 1.3 -9.7 13.7 -10.1 14.2 c -1.2 1.7 -1.3 4.6 0.7 6.6 c 0.3 0.3 0.6 0.5 0.9 0.8 c 1.2 0.8 2.6 1 4 0.7 c 1.4 -0.3 2.7 -1.2 3.4 -2.4 c 0.2 -0.4 8.8 -14.8 9.2 -15.5 c 0.1 -0.1 0.4 -0.5 0.9 -0.3 c 0.5 0.2 0.5 0.7 0.4 0.9 c -0.1 0.3 -2.1 4.3 -6.4 13.2 c -1.8 3.8 -3.4 7.1 -3.6 7.4 c -0.9 1.8 -0.8 4.5 1 6.4 c 0.4 0.4 0.9 0.8 1.5 1 c 1.5 0.7 3 0.8 4.4 0.2 c 1.6 -0.6 2.8 -2 3.2 -3.1 c 0.1 -0.3 1.1 -2.7 2.3 -5.9 c 2.2 -5.5 5.7 -14.6 5.8 -15 c 0.1 -0.3 0.5 -0.7 1 -0.5 c 0.5 0.2 0.7 0.7 0.6 1 c -0.1 0.2 -5.1 17.9 -6.4 22.2 C 57 97.9 37.8 96.4 24.2 85 z M 14.4 31.7 L 14.4 31.7 c 4.3 -1.2 21.9 -6.3 22.2 -6.4 c 0.2 -0.1 0.8 0 1 0.5 c 0.2 0.5 -0.1 1 -0.5 1.2 c -1.7 0.6 -9.9 3.9 -15 5.8 c -3.1 1.2 -5.5 2.1 -5.8 2.3 c -1.1 0.4 -2.5 1.6 -3.1 3.2 c -0.6 1.4 -0.5 2.9 0.2 4.4 c 0.3 0.6 0.6 1.1 1 1.5 c 1.8 1.8 4.6 1.9 6.4 1 c 0.3 -0.2 3.7 -1.8 7.6 -3.7 c 8.8 -4.2 12.6 -6.1 12.9 -6.3 c 0.3 -0.2 0.8 -0.1 1 0.3 c 0.3 0.5 -0.1 0.9 -0.2 1 c -0.7 0.5 -15.2 9.1 -15.6 9.3 c -1.2 0.7 -2.1 2 -2.4 3.4 c -0.3 1.4 -0.1 2.8 0.7 4 c 0.2 0.3 0.5 0.7 0.8 0.9 c 2 2 4.9 1.8 6.6 0.7 c 0.6 -0.4 12.8 -9.1 14.2 -10.1 c 0.1 -0.1 0.3 0 0.3 0 c 0 0 0 0 0 0 c 0.2 0.2 -0.1 0.8 -0.3 1 c -1.6 2.1 -16.8 20.8 -27.5 33.9 C 7.4 66 5.9 46.8 14.4 31.7 z M 79.5 20.6 L 79.5 20.6 L 64.1 34.2 C 63.4 34 62.7 34 62 34.1 C 58 30.6 41.8 16.9 39.8 15.2 c -0.5 -0.4 -1.2 -0.6 -1.9 -0.4 L 26.5 18 C 42.4 6.5 64.5 7.4 79.5 20.6 z M 85.8 77.3 L 85.8 77.3 L 89 65.9 c 0.2 -0.7 0 -1.4 -0.4 -1.9 c -1.7 -2 -15.5 -18.3 -18.9 -22.2 c 0 -0.1 0 -0.1 0 -0.2 c 0.1 -0.6 0 -1.2 -0.1 -1.9 l 13.6 -15.4 C 96.5 39.3 97.3 61.4 85.8 77.3 z M 87.2 19.8 l 2.2 -2.5 c 0.7 -0.8 0.7 -2.1 -0.1 -2.8 c -0.8 -0.8 -2 -0.8 -2.8 -0.1 L 84 16.6 C 65 -0.7 35.5 -0.2 17.2 18.2 C -1 36.3 -1.7 65.4 15 84.4 c -3.9 4.8 -6.6 8.1 -6.7 8.2 c -0.7 0.8 -0.6 2 0.1 2.8 c 0.8 0.8 1.9 0.8 2.8 0.1 c 0.1 -0.1 3.4 -2.8 8.2 -6.7 c 19 16.7 48.1 16 66.2 -2.1 C 104 68.3 104.5 38.8 87.2 19.8 z" stroke-linecap="round"/>
</g>
		<g transform="matrix(1 0 0 1 52.95 0.2)" id="XMLID_8252_">
<path style="stroke: none; stroke-width: 1; stroke-dasharray: none; stroke-linecap: butt; stroke-dashoffset: 0; stroke-linejoin: miter; stroke-miterlimit: 4; is-custom-font: none; font-file-url: none; fill: rgb(222,0,0); fill-rule: nonzero; opacity: 1;" transform=" translate(-288.45, -52.45)" d="M 446.6 66.7 c 0.1 2.2 1.5 4.8 5.8 4.8 c 3.7 0 5.4 -2.1 5.4 -4.1 c 0 -1.6 -0.8 -2.8 -4.8 -3.9 l -6.4 -1.7 c -2.8 -0.8 -8.8 -2.6 -8.8 -9.7 c 0 -6.8 6.2 -10.9 15.3 -10.9 c 7.2 0 13 3.3 13.3 10.3 H 457 c -0.3 -3.9 -3.4 -4.1 -5 -4.1 c -2.8 0 -4.8 1.3 -4.8 3.5 c 0 2.4 1.7 2.8 4.8 3.7 l 6.3 1.7 c 6.4 1.7 9.3 5 9.3 9.7 c 0 6 -5.2 12 -16 12 c -4.5 0 -8.8 -1 -12 -4.3 c -2.3 -2.4 -2.5 -5.2 -2.6 -6.8 H 446.6 z M 414.3 66 L 414.3 66 c 0 2.4 1.6 5 5 5 c 1.9 0 3.4 -0.9 4.4 -2 c 1.8 -2.2 1.9 -4.9 1.9 -8.6 C 419 59.7 414.3 61.8 414.3 66 z M 426.8 76.7 c -0.3 -2.1 -0.3 -3.7 -0.3 -4.8 c -3.9 5.6 -8.5 5.6 -10.4 5.6 c -5 0 -7.3 -1.5 -8.7 -2.8 c -2.1 -2.1 -3 -4.9 -3 -7.7 c 0 -2.8 1 -7.9 7.4 -10.9 c 4.3 -1.9 10.4 -1.9 13.8 -1.9 c 0 -2.3 -0.1 -3.4 -0.5 -4.6 c -0.9 -2.6 -3.6 -2.9 -4.6 -2.9 c -1.5 0 -3 0.6 -3.9 1.9 c -0.8 1.2 -0.8 2.3 -0.8 3.1 h -10 c 0.1 -1.9 0.3 -5.6 3.9 -8.2 c 3.2 -2.3 7.3 -2.8 10.6 -2.8 c 2.9 0 9 0.5 12.4 4.5 c 2.3 2.8 2.4 7 2.4 8.6 l 0.1 14 c 0 3 0.2 5.9 0.8 8.8 H 426.8 z M 392.6 54.2 c -0.1 -1.2 -0.6 -6.4 -4.5 -6.4 c -4.8 0 -5.4 7.3 -5.4 11.1 c 0 1.9 0.2 8.2 2.6 10.7 c 1 1 2 1.2 2.8 1.2 c 1.1 0 4.3 -0.5 4.7 -6.7 h 10.1 c -0.1 2.7 -0.5 6.9 -4.5 10.3 c -2.5 2.1 -5.6 3.2 -10 3.2 c -4.6 0 -8.7 -1 -11.9 -4.6 c -3 -3.5 -4.4 -8.2 -4.4 -13.8 c 0 -15.9 11.7 -18.1 16.3 -18.1 c 6.5 0 14.2 3.6 14.2 13.1 H 392.6 z M 348.6 66 L 348.6 66 c 0 2.4 1.6 5 5 5 c 1.9 0 3.4 -0.9 4.4 -2 c 1.8 -2.2 1.9 -4.9 1.9 -8.6 C 353.3 59.7 348.6 61.8 348.6 66 z M 361.2 76.7 c -0.3 -2.1 -0.3 -3.7 -0.3 -4.8 c -3.9 5.6 -8.5 5.6 -10.4 5.6 c -5 0 -7.3 -1.5 -8.7 -2.8 c -2.1 -2.1 -3 -4.9 -3 -7.7 c 0 -2.8 1 -7.9 7.4 -10.9 c 4.3 -1.9 10.4 -1.9 13.8 -1.9 c 0 -2.3 -0.1 -3.4 -0.5 -4.6 c -0.9 -2.6 -3.6 -2.9 -4.6 -2.9 c -1.5 0 -3 0.6 -3.9 1.9 c -0.8 1.2 -0.8 2.3 -0.8 3.1 h -10 c 0.1 -1.9 0.3 -5.6 3.9 -8.2 c 3.2 -2.3 7.3 -2.8 10.6 -2.8 c 2.9 0 9 0.5 12.4 4.5 c 2.3 2.8 2.4 7 2.4 8.6 l 0.1 14 c 0 3 0.2 5.9 0.8 8.8 H 361.2 z M 317.5 50.4 c 0 -1.7 -0.3 -6.7 -0.5 -8.7 h 9.6 l 0.2 6.7 c 1.3 -3 3.6 -7.2 11.9 -6.8 v 10.2 c -10.4 -1 -11 4.4 -11 8.7 v 16.2 h -10.2 V 50.4 z M 293.5 66 L 293.5 66 c 0 2.4 1.6 5 5 5 c 1.9 0 3.4 -0.9 4.4 -2 c 1.8 -2.2 1.9 -4.9 1.9 -8.6 C 298.2 59.7 293.5 61.8 293.5 66 z M 306.1 76.7 c -0.3 -2.1 -0.3 -3.7 -0.3 -4.8 c -3.9 5.6 -8.5 5.6 -10.4 5.6 c -5 0 -7.3 -1.5 -8.7 -2.8 c -2.1 -2.1 -3 -4.9 -3 -7.7 c 0 -2.8 1 -7.9 7.4 -10.9 c 4.3 -1.9 10.4 -1.9 13.8 -1.9 c 0 -2.3 -0.1 -3.4 -0.5 -4.6 c -0.9 -2.6 -3.6 -2.9 -4.6 -2.9 c -1.4 0 -3 0.6 -3.9 1.9 c -0.8 1.2 -0.8 2.3 -0.8 3.1 h -10 c 0.1 -1.9 0.3 -5.6 3.9 -8.2 c 3.2 -2.3 7.3 -2.8 10.6 -2.8 c 2.9 0 9 0.5 12.4 4.5 c 2.3 2.8 2.4 7 2.4 8.6 l 0.1 14 c 0 3 0.2 5.9 0.8 8.8 H 306.1 z M 260.4 49.4 L 260.4 49.4 h 4.3 c 3.5 0 9.9 0 9.9 -7.6 c 0 -6.8 -5.7 -6.8 -8.8 -6.8 h -5.4 V 49.4 z M 249.8 26.9 h 15.4 c 7.2 0 13.2 0.5 17.3 5.5 c 2.6 3.2 3 6.8 3 9.3 c 0 5.8 -2.4 10.7 -6.4 13.3 c -3.7 2.4 -8.7 2.4 -11.3 2.4 h -7.3 v 19.4 h -10.9 V 26.9 z M 229.7 70.9 L 229.7 70.9 c 4.5 0 7.5 -2.7 7.5 -12 c 0 -4.6 -0.9 -11.1 -7.7 -11.1 c -7.5 0 -7.5 8.6 -7.5 11.8 C 222 67.5 224.7 70.9 229.7 70.9 z M 229.6 41 c 12.6 0 18.1 8.6 18.1 18.3 c 0 9.8 -5.7 18.7 -18.3 18.7 c -10 0 -17.8 -6.1 -17.8 -18.4 C 211.5 51.2 215.8 41 229.6 41 z M 190.7 50.4 c 0 -1.7 -0.3 -6.7 -0.5 -8.7 h 9.6 l 0.2 6.7 c 1.3 -3 3.6 -7.2 11.9 -6.8 v 10.2 c -10.4 -1 -11 4.4 -11 8.7 v 16.2 h -10.2 V 50.4 z M 177.8 55.5 L 177.8 55.5 c 0 -1.6 -0.1 -7.8 -6.1 -7.8 c -4.5 0 -6.4 3.7 -6.6 7.8 H 177.8 z M 164.8 61.9 c 0 2.3 0 9.3 7.1 9.3 c 2.6 0 5.1 -1 6.1 -4.8 h 9.3 c -0.1 1.7 -0.5 4.6 -3.3 7.6 c -2.6 2.7 -7.1 4.1 -12.2 4.1 c -3 0 -8.6 -0.6 -12.3 -4.4 c -3.2 -3.3 -4.5 -8 -4.5 -13.6 c 0 -5.7 1.4 -12.4 7.3 -16.5 c 2.7 -1.8 6 -2.9 9.8 -2.9 c 5 0 10.9 1.9 14.1 8.4 c 2.3 4.8 2.2 9.9 2.1 12.8 H 164.8 z M 140.3 57.9 L 140.3 57.9 l -6.9 -21.3 L 126 57.9 H 140.3 z M 140 26.8 l 17.4 50 h -10.8 L 143 66 h -19.8 l -3.7 10.8 h -10.2 l 18 -50 H 140 z" stroke-linecap="round"/>
</g>
</g>
</g>
</svg>